HIERARCHY
ROOT Hips
{
	OFFSET 7.685713 105.461678 -0.638886
	CHANNELS 6 Xposition Yposition Zposition Xrotation Yrotation Zrotation
	JOINT Chest
	{
		OFFSET 2.677432 13.292717 1.513043
		CHANNELS 3 Xrotation Yrotation Zrotation
		JOINT Chest2
		{
			OFFSET 2.424706 20.460297 5.879099
			CHANNELS 3 Xrotation Yrotation Zrotation
			JOINT Chest3
			{
				OFFSET -0.021918 14.923080 0.348132
				CHANNELS 3 Xrotation Yrotation Zrotation
				JOINT Neck
				{
					OFFSET -1.007869 17.042526 2.674419
					CHANNELS 3 Xrotation Yrotation Zrotation
					JOINT Head
					{
						OFFSET -2.798580 9.592300 3.159681
						CHANNELS 3 Xrotation Yrotation Zrotation
						End Site
						{
							OFFSET -2.793770 9.616135 3.090731
						}
					}
				}
				JOINT LeftCollar
				{
					OFFSET 3.950771 13.052750 3.977627
					CHANNELS 3 Xrotation Yrotation Zrotation
					JOINT LeftUpArm
					{
						OFFSET 12.183847 7.647110 -10.078444
						CHANNELS 3 Xrotation Yrotation Zrotation
						JOINT LeftLowArm
						{
							OFFSET 24.667835 20.921951 9.669406
							CHANNELS 3 Xrotation Yrotation Zrotation
							JOINT LeftHand
							{
								OFFSET -23.258026 -6.985794 17.641172
								CHANNELS 3 Xrotation Yrotation Zrotation
								End Site
								{
									OFFSET -5.083170 -1.526810 3.855576
								}
							}
						}
					}
				}
				JOINT RightCollar
				{
					OFFSET -4.252896 12.297379 5.700519
					CHANNELS 3 Xrotation Yrotation Zrotation
					JOINT RightUpArm
					{
						OFFSET -15.509571 -7.193787 -4.024787
						CHANNELS 3 Xrotation Yrotation Zrotation
						JOINT RightLowArm
						{
							OFFSET -13.732281 -30.074188 6.833946
							CHANNELS 3 Xrotation Yrotation Zrotation
							JOINT RightHand
							{
								OFFSET -17.341862 -8.614761 22.934700
								CHANNELS 3 Xrotation Yrotation Zrotation
								End Site
								{
									OFFSET -3.790241 -1.882820 5.012611
								}
							}
						}
					}
				}
			}
		}
	}
	JOINT LeftUpLeg
	{
		OFFSET 9.790131 -1.850105 -1.072188
		CHANNELS 3 Xrotation Yrotation Zrotation
		JOINT LeftLowLeg
		{
			OFFSET 1.027468 -44.156090 17.122311
			CHANNELS 3 Xrotation Yrotation Zrotation
			JOINT LeftFoot
			{
				OFFSET -23.051249 -33.670311 -18.317158
				CHANNELS 3 Xrotation Yrotation Zrotation
				JOINT LeftToe
				{
					OFFSET -10.095655 -19.719997 8.292114
					CHANNELS 3 Xrotation Yrotation Zrotation
					End Site
					{
						OFFSET 0.254467 -14.061004 19.020575
					}
				}
			}
		}
	}
	JOINT RightUpLeg
	{
		OFFSET -9.790173 1.849915 1.072166
		CHANNELS 3 Xrotation Yrotation Zrotation
		JOINT RightLowLeg
		{
			OFFSET -0.565773 -47.340519 1.602495
			CHANNELS 3 Xrotation Yrotation Zrotation
			JOINT RightFoot
			{
				OFFSET 5.564691 -40.266602 -18.660528
				CHANNELS 3 Xrotation Yrotation Zrotation
				JOINT RightToe
				{
					OFFSET -1.112057 -20.952576 10.922899
					CHANNELS 3 Xrotation Yrotation Zrotation
					End Site
					{
						OFFSET -3.925814 -9.271357 21.405281
					}
				}
			}
		}
	}
}
MOTION
Frames: 8
Frame Time: 0.033333
8.067250 102.648163 -2.758202 3.484171 2.068011 -5.057062 0.966729 -0.130867 -0.168309 6.396673 -3.800231 3.972521 -7.032522 1.610308 -0.069036 -3.324678 -5.183510 2.964233 0.000001 -0.000001 -0.000002 4.807140 -5.145309 6.850016 -2.654846 2.332157 3.899715 -221.213325 161.028157 174.285090 -0.000001 0.000005 0.000002 -0.087601 3.243986 1.255766 -3.591139 1.176852 -1.744241 6.872455 -4.616967 2.702365 -0.000001 0.000003 -0.000000 -11.132361 1.152816 6.989568 9.981115 -6.235061 -21.311375 7.125970 -7.568041 -13.125012 0.000003 0.000001 -0.000003 -12.662959 1.116159 3.628789 8.016093 0.424751 6.199907 -3.594599 -10.084640 2.820282 0.000000 -0.000003 0.000002 
8.078673 102.544434 -2.846231 3.480762 2.177634 -4.992662 1.501005 -0.184674 -0.386249 5.922422 -3.838769 4.114595 -6.707618 1.770327 -0.090660 -3.992440 -5.541182 3.122015 -0.000001 0.000001 -0.000003 4.771476 -5.157611 6.883429 -2.491104 2.302457 4.035177 -222.972810 160.111628 174.369716 -0.000001 0.000000 0.000002 -0.076079 2.362518 1.398499 -3.374959 1.167104 -1.888180 6.467005 -4.122601 2.780063 -0.000001 0.000003 0.000002 -11.924785 1.104853 7.664376 9.985935 -6.391674 -22.763149 7.715850 -7.881625 -13.545796 -0.000001 0.000004 -0.000005 -13.303222 1.221809 3.687564 8.770690 0.613959 6.030154 -3.775963 -10.244993 3.009012 0.000000 -0.000001 -0.000001 
8.091629 102.442627 -2.927221 3.454142 2.686052 -4.979603 1.985258 -0.303993 -0.312131 5.448536 -3.813562 4.095121 -6.597253 1.912733 -0.074434 -4.168373 -5.800949 3.155779 -0.000001 0.000000 -0.000002 4.657342 -5.165407 6.857931 -2.533588 2.188094 3.963487 -223.986410 160.270498 174.314692 0.000001 -0.000002 -0.000001 -0.155092 2.816662 1.281040 -3.635686 1.228945 -2.162274 6.828028 -4.747447 2.762807 -0.000000 0.000002 -0.000004 -12.172165 1.070154 7.757456 10.474068 -6.789724 -23.225841 7.386400 -8.060176 -13.650154 -0.000001 0.000001 -0.000003 -13.587917 1.315860 3.461034 8.866876 0.601568 6.473518 -3.888703 -10.968358 2.866243 0.000002 -0.000002 0.000001 
8.106337 102.352921 -3.022800 4.309916 3.128642 -5.052302 1.329473 -0.169857 -0.231806 5.180070 -3.933961 4.316400 -6.406221 1.847710 -0.337095 -4.514572 -6.142267 3.439600 -0.000001 0.000000 -0.000004 4.919104 -5.589935 6.975688 -2.736539 2.309863 4.133461 -224.162027 160.520756 174.192732 0.000000 -0.000003 -0.000000 -0.237500 2.586287 1.233116 -4.049235 1.419708 -2.257869 7.454381 -5.343811 3.058576 -0.000003 0.000005 -0.000003 -12.888053 1.056475 8.093402 10.244041 -6.730901 -24.117418 7.444121 -8.832012 -14.638033 0.000001 -0.000002 -0.000000 -14.388461 1.443464 3.300858 8.322027 0.486738 6.812543 -3.692008 -11.287064 2.369161 0.000004 -0.000001 -0.000001 
8.122506 102.268639 -3.117819 4.179194 3.542263 -5.043032 1.885236 -0.269093 -0.256040 4.673167 -3.821995 4.196830 -6.192333 1.910893 -0.149815 -4.120762 -6.243411 3.539347 -0.000001 0.000000 -0.000001 4.353956 -5.220951 6.842557 -2.714191 1.724057 4.304725 -224.484262 160.813143 173.995586 0.000007 0.000002 0.000000 -0.360269 2.379549 1.442070 -3.812217 0.533752 -2.642159 6.638435 -4.756973 3.437358 -0.000001 -0.000000 -0.000000 -12.757971 1.061062 8.309901 9.947153 -6.650413 -25.039439 7.894863 -9.352868 -15.535349 0.000001 0.000001 -0.000001 -14.271900 1.435477 3.337393 7.940054 0.539028 6.732407 -3.560810 -11.705286 2.172198 0.000000 0.000000 -0.000000 
8.137177 102.188484 -3.219186 4.022585 3.820893 -5.055303 1.875909 -0.281077 -0.369850 5.088808 -4.002155 4.390538 -6.961406 1.766318 -0.284829 -2.878513 -6.094045 3.633228 -0.000002 -0.000000 0.000000 4.101338 -4.428040 7.152677 -1.629440 0.702883 4.170383 -223.891047 160.299212 174.072275 0.000000 0.000000 -0.000000 -0.228230 2.627177 1.186556 -3.203030 0.559457 -2.079946 6.811698 -5.363235 2.873205 -0.000001 0.000000 -0.000002 -12.482276 1.044317 8.416113 9.876934 -6.892638 -25.375147 7.560248 -9.849637 -16.221916 0.000001 -0.000002 -0.000000 -13.953298 1.464530 3.311298 7.732424 0.657082 6.940644 -3.595669 -11.973337 2.191421 -0.000002 0.000001 -0.000002 
8.153073 102.104843 -3.310274 3.997950 4.000495 -5.248063 1.846953 -0.315456 -0.246244 4.668036 -3.983885 4.404643 -6.919942 1.986304 -0.245103 -2.064907 -6.175751 3.792245 -0.000000 0.000001 -0.000003 4.056248 -4.285593 7.161516 -1.388294 0.410301 4.109466 -222.636505 159.802753 174.024477 -0.000002 0.000002 0.000001 -0.141539 2.076620 1.300009 -2.897633 0.334311 -2.235681 6.488670 -4.797013 2.827806 -0.000001 0.000004 -0.000002 -12.617316 1.106734 8.601529 10.249120 -7.150414 -25.603415 7.464625 -10.692378 -17.302177 -0.000004 0.000004 -0.000002 -14.186591 1.454147 3.300912 8.008469 0.610488 7.323500 -3.835836 -12.414268 2.395589 -0.000000 0.000001 -0.000003 
8.169475 102.027657 -3.405822 4.031535 4.182145 -5.297750 1.959957 -0.355231 -0.275018 4.649890 -3.902703 4.313442 -7.008044 2.053208 -0.109114 -1.787921 -6.350656 3.954088 0.000001 0.000000 -0.000001 4.356734 -4.161144 7.184623 -1.514249 1.207587 4.425230 -224.647627 160.369140 174.600713 0.000002 -0.000001 0.000001 0.039908 2.492147 1.124614 -2.942154 0.883636 -2.278626 7.171052 -5.497989 2.363189 -0.000000 0.000002 -0.000002 -12.642474 1.053985 8.580000 9.745456 -6.957014 -25.956595 7.474693 -11.280015 -18.120441 0.000004 0.000003 -0.000002 -14.382266 1.553374 3.153057 7.933046 0.580916 7.648241 -3.873819 -12.410317 2.263000 -0.000003 0.000001 -0.000003 
